<?xml version="1.0" standalone="no"?>
<!DOCTYPE svg PUBLIC "-//W3C//DTD SVG 20010904//EN"
 "http://www.w3.org/TR/2001/REC-SVG-20010904/DTD/svg10.dtd">
<svg version="1.0" xmlns="http://www.w3.org/2000/svg"
 width="800.000000pt" height="800.000000pt" viewBox="0 0 800.000000 800.000000"
 preserveAspectRatio="xMidYMid meet">
<metadata>
Created by potrace 1.11, written by Peter Selinger 2001-2013
</metadata>
<g transform="translate(0.000000,800.000000) scale(0.100000,-0.100000)"
fill="#000000" stroke="none">
<path d="M1187 7624 c-340 -45 -626 -267 -754 -586 -13 -32 -33 -100 -44 -151
-20 -91 -21 -117 -21 -2152 0 -1880 2 -2067 17 -2139 78 -370 363 -649 745
-730 47 -10 162 -14 424 -15 198 -1 362 -3 364 -6 3 -2 6 -172 7 -377 1 -205
5 -382 8 -394 3 -11 13 -52 22 -90 70 -281 300 -526 584 -623 152 -52 50 -50
2296 -48 l2090 2 80 23 c171 48 348 158 458 283 51 57 130 180 142 220 4 13
11 29 15 34 13 18 31 78 50 170 19 87 19 163 19 2150 0 1216 -3 2076 -9 2100
-5 22 -12 55 -15 74 -43 247 -266 522 -503 622 -26 11 -56 24 -67 29 -29 13
-89 30 -122 36 -15 2 -35 7 -43 11 -8 3 -185 7 -393 8 -208 2 -380 4 -382 7
-3 2 -5 164 -5 359 -1 195 -6 377 -11 404 -6 28 -12 61 -15 74 -3 13 -16 55
-29 92 -113 325 -422 576 -755 615 -104 12 -4062 10 -4153 -2z m4109 -787 c36
-19 70 -54 82 -87 5 -14 9 -170 9 -347 0 -291 -1 -323 -16 -324 -9 0 -610 -2
-1336 -3 -726 -2 -1333 -6 -1350 -10 -16 -4 -49 -11 -72 -17 -105 -23 -253
-95 -343 -166 -136 -109 -265 -296 -307 -448 -40 -143 -40 -147 -39 -1507 l1
-1316 -325 0 c-181 0 -336 5 -350 10 -33 12 -68 46 -87 82 -13 26 -15 264 -15
2032 -1 1943 0 2004 18 2035 26 45 66 72 116 78 24 3 930 5 2014 5 1742 -2
1974 -3 2000 -17z"/>
</g>
</svg>
