<?xml version="1.0" encoding="utf-8"?>
<!-- Generator: Adobe Illustrator 21.0.2, SVG Export Plug-In . SVG Version: 6.00 Build 0)  -->
<svg version="1.0"   xmlns="http://www.w3.org/2000/svg" xmlns:xlink="http://www.w3.org/1999/xlink" x="0px" y="0px"
	 viewBox="0 0 82.9 72.8" style="enable-background:new 0 0 82.9 72.8;" xml:space="preserve">
<g>
	<path d="M82.6,67.8L82.6,67.8l-0.1-0.2c-0.1-0.1-0.1-0.3-0.2-0.4L44.6,1.9C44,0.8,42.8,0,41.5,0c-1.5,0-2.7,0.9-3.3,2.2l0,0
		L0.8,66.9l0,0C0.3,67.6,0,68.3,0,69.2c0,2,1.6,3.6,3.6,3.6l0,0h75.8l0,0c2,0,3.6-1.6,3.6-3.6C82.9,68.7,82.8,68.2,82.6,67.8z
		 M41.5,66c-2.9,0-5.2-2.3-5.2-5.1c0-2.9,2.3-5.2,5.2-5.2c2.8,0,5.1,2.3,5.1,5.2C46.6,63.8,44.3,66,41.5,66z M46.6,20.6v28.3h0
		c0,0,0,0,0,0c0,1.2-1,2.1-2.1,2.1c0,0,0,0,0,0v0h-6.1c-1.2,0-2.1-0.9-2.1-2.1c0,0,0,0,0,0h0V20.7c0,0,0-0.1,0-0.1
		c0-1.1,0.9-2,1.9-2.1v0h6.3v0C45.7,18.6,46.6,19.5,46.6,20.6L46.6,20.6L46.6,20.6L46.6,20.6C46.6,20.6,46.6,20.6,46.6,20.6z"/>
</g>
</svg>
