<?xml version="1.0" encoding="utf-8"?>
<!-- Generator: Adobe Illustrator 21.0.2, SVG Export Plug-In . SVG Version: 6.00 Build 0)  -->
<svg version="1.0"   xmlns="http://www.w3.org/2000/svg" xmlns:xlink="http://www.w3.org/1999/xlink" x="0px" y="0px"
	 viewBox="0 0 69.3 69.7" style="enable-background:new 0 0 69.3 69.7;" xml:space="preserve">
<g>
	<path d="M65.9,0H3.4C1.5,0,0,1.5,0,3.4v3.1C0,8.4,1.5,10,3.4,10h62.5c1.9,0,3.4-1.5,3.4-3.4V3.4C69.3,1.5,67.8,0,65.9,0z"/>
	<path d="M3.4,29.9H49l0,0c1.9,0,3.4-1.5,3.4-3.4l0,0v-3.1l0,0c0-1.9-1.5-3.4-3.4-3.4l0,0H3.4c-1.9,0-3.4,1.5-3.4,3.4v3.1
		C0,28.3,1.5,29.9,3.4,29.9z"/>
	<path d="M59,59.8L59,59.8H3.4c-1.9,0-3.4,1.5-3.4,3.4v3.1c0,1.9,1.5,3.4,3.4,3.4H59l0,0c1.9,0,3.4-1.5,3.4-3.4h0v-3.1h0
		C62.4,61.3,60.9,59.8,59,59.8z"/>
	<path d="M3.4,49.8h38.8l0,0l0,0c1.9,0,3.4-1.5,3.4-3.4v0v-3.1v0c0-1.9-1.5-3.4-3.4-3.4l0,0l0,0H3.4c-1.9,0-3.4,1.5-3.4,3.4v3.1
		C0,48.3,1.5,49.8,3.4,49.8z"/>
</g>
</svg>
