<?xml version="1.0" encoding="utf-8"?>
<!-- Generator: Adobe Illustrator 21.0.2, SVG Export Plug-In . SVG Version: 6.00 Build 0)  -->
<svg version="1.0"   xmlns="http://www.w3.org/2000/svg" xmlns:xlink="http://www.w3.org/1999/xlink" x="0px" y="0px"
	 viewBox="0 0 57 76.7" style="enable-background:new 0 0 57 76.7;" xml:space="preserve">
<g>
	<path d="M0.5,39.2l26.1,36.4c0.5,0.7,1.2,1,2,1.1c0,0,0,0,0,0c0.8,0,1.6-0.4,2-1.1l25.9-36.4c0.5-0.8,0.6-1.8,0.2-2.6
		c-0.4-0.8-1.3-1.4-2.2-1.4H42.3l0-32.7c0-1.4-1.1-2.5-2.5-2.5L17.2,0c-1.4,0-2.5,1.1-2.5,2.5v32.7H2.5c-0.9,0-1.8,0.5-2.2,1.4
		C-0.2,37.4-0.1,38.4,0.5,39.2z"/>
</g>
</svg>
