<?xml version="1.0" encoding="utf-8"?>
<!-- Generator: Adobe Illustrator 21.0.2, SVG Export Plug-In . SVG Version: 6.00 Build 0)  -->
<svg version="1.0"   xmlns="http://www.w3.org/2000/svg" xmlns:xlink="http://www.w3.org/1999/xlink" x="0px" y="0px"
	 viewBox="0 0 76.7 57" style="enable-background:new 0 0 76.7 57;" xml:space="preserve">
<g>
	<path d="M37.5,0.5L1.1,26.5c-0.7,0.5-1,1.2-1.1,2c0,0,0,0,0,0c0,0.8,0.4,1.6,1.1,2l36.4,25.9c0.8,0.5,1.8,0.6,2.6,0.2
		c0.8-0.4,1.4-1.3,1.4-2.2V42.3l32.7,0c1.4,0,2.5-1.1,2.5-2.5l0-22.5c0-1.4-1.1-2.5-2.5-2.5H41.5V2.5c0-0.9-0.5-1.8-1.4-2.2
		C39.2-0.2,38.2-0.1,37.5,0.5z"/>
</g>
</svg>
