<?xml version="1.0" encoding="utf-8"?>
<!-- Generator: Adobe Illustrator 21.0.2, SVG Export Plug-In . SVG Version: 6.00 Build 0)  -->
<svg version="1.0"   xmlns="http://www.w3.org/2000/svg" xmlns:xlink="http://www.w3.org/1999/xlink" x="0px" y="0px"
	 viewBox="0 0 76.7 57" style="enable-background:new 0 0 76.7 57;" xml:space="preserve">
<g>
	<path d="M39.2,56.5l36.4-26.1c0.7-0.5,1-1.2,1.1-2c0,0,0,0,0,0c0-0.8-0.4-1.6-1.1-2L39.2,0.5c-0.8-0.5-1.8-0.6-2.6-0.2
		c-0.8,0.4-1.4,1.3-1.4,2.2v12.2l-32.7,0c-1.4,0-2.5,1.1-2.5,2.5l0,22.5c0,1.4,1.1,2.5,2.5,2.5h32.7v12.2c0,0.9,0.5,1.8,1.4,2.2
		C37.4,57.1,38.4,57.1,39.2,56.5z"/>
</g>
</svg>
