<?xml version="1.0" encoding="UTF-8"?>
<svg version="1.1" viewBox="0 0 100 100" xmlns="http://www.w3.org/2000/svg">
 <g>
  <path d="m43.75 57.812h-7.8125v9.375h7.8125c0.41406 0 0.8125 0.16406 1.1055 0.45703l3.582 3.582v-17.453l-3.582 3.582c-0.29297 0.29297-0.69141 0.45703-1.1055 0.45703z"/>
  <path d="m60.938 11.852v17.836h17.836z"/>
  <path d="m59.375 32.812c-0.86328 0-1.5625-0.69922-1.5625-1.5625v-20.312h-35.938c-0.86328 0-1.5625 0.69922-1.5625 1.5625v75c0 0.86328 0.69922 1.5625 1.5625 1.5625h56.25c0.86328 0 1.5625-0.69922 1.5625-1.5625v-54.688zm-7.8125 42.188c0 0.63281-0.38281 1.2031-0.96484 1.4453-0.19141 0.078126-0.39453 0.11719-0.59766 0.11719-0.40625 0-0.80469-0.16016-1.1055-0.45703l-5.793-5.793h-8.7266c-0.86328 0-1.5625-0.69922-1.5625-1.5625v-12.5c0-0.86328 0.69922-1.5625 1.5625-1.5625h8.7266l5.793-5.793c0.44531-0.44922 1.1172-0.58203 1.7031-0.33984 0.58203 0.24219 0.96484 0.8125 0.96484 1.4453zm11.508-2.5547c-0.30469 0.30469-0.70312 0.45703-1.1055 0.45703-0.39844 0-0.80078-0.15234-1.1055-0.45703-0.60938-0.60937-0.60938-1.5977 0-2.2109 4.2656-4.2656 4.2656-11.203 0-15.469-0.60938-0.60938-0.60938-1.5977 0-2.2109 0.60938-0.60938 1.5977-0.60938 2.2109 0 5.4844 5.4844 5.4844 14.406 0 19.891z"/>
 </g>
</svg>
