<?xml version="1.0" encoding="utf-8"?>
<!-- Generator: Adobe Illustrator 21.0.2, SVG Export Plug-In . SVG Version: 6.00 Build 0)  -->
<svg version="1.0"   xmlns="http://www.w3.org/2000/svg" xmlns:xlink="http://www.w3.org/1999/xlink" x="0px" y="0px"
	 viewBox="0 0 42.6 73.8" style="enable-background:new 0 0 42.6 73.8;" xml:space="preserve">
<g>
	<path d="M39.6,0H3C1.3,0,0,1.3,0,3v6.7v45.9v15.9c0,1.2,1,2.2,2.2,2.2c0.6,0,1.1-0.2,1.5-0.6h0l16.1-16.1h0
		c0.4-0.4,0.9-0.7,1.5-0.7s1.1,0.3,1.5,0.7h0L38.8,73c0.4,0.5,1,0.8,1.7,0.8c1.2,0,2.2-1,2.2-2.2V55.7V9.8V3C42.6,1.3,41.3,0,39.6,0
		z"/>
</g>
</svg>
