<?xml version="1.0" encoding="utf-8"?>
<!-- Generator: Adobe Illustrator 21.0.2, SVG Export Plug-In . SVG Version: 6.00 Build 0)  -->
<svg version="1.0"   xmlns="http://www.w3.org/2000/svg" xmlns:xlink="http://www.w3.org/1999/xlink" x="0px" y="0px"
	 viewBox="0 0 64.1 75.5" style="enable-background:new 0 0 64.1 75.5;" xml:space="preserve">
<g>
	<path d="M64.1,10L64.1,10c0-0.9-0.7-1.6-1.6-1.6v0h-3.4l0,60.4l0,0c0,0.9-0.7,1.6-1.6,1.6v0l-50.9,0c-0.8,0-1.5-0.6-1.6-1.4v-3.6
		h47.4v0c0,0,0,0,0,0c0.9,0,1.6-0.7,1.6-1.6c0,0,0,0,0,0l0-62.2c0-0.9-0.7-1.6-1.6-1.6c0,0,0,0,0,0v0h-5.8v13v16.3V35
		c0,0.4-0.4,0.8-0.8,0.8c-0.2,0-0.4-0.1-0.6-0.3l-5.7-5.7h0c-0.1-0.1-0.3-0.2-0.5-0.2s-0.4,0.1-0.5,0.2h0l-5.7,5.7h0
		c-0.1,0.1-0.3,0.2-0.5,0.2c-0.4,0-0.8-0.4-0.8-0.8v-5.6V13V0H1.6C0.7,0,0,0.7,0,1.6c0,0,0,0,0,0.1v59.2v12.8c0,0,0,0,0,0.1
		s0,0,0,0.1v0.1h0c0.1,0.8,0.8,1.5,1.6,1.5v0l60.8,0h0v0c0.9,0,1.6-0.7,1.6-1.6l0,0L64.1,10z"/>
</g>
</svg>
