<?xml version="1.0" encoding="utf-8"?>
<!-- Generator: Adobe Illustrator 21.0.2, SVG Export Plug-In . SVG Version: 6.00 Build 0)  -->
<svg version="1.0"   xmlns="http://www.w3.org/2000/svg" xmlns:xlink="http://www.w3.org/1999/xlink" x="0px" y="0px"
	 viewBox="0 0 63.7 71.9" style="enable-background:new 0 0 63.7 71.9;" xml:space="preserve">
<g>
	<path d="M62.4,25.4H1.3C0.6,25.4,0,26,0,26.7v43.9c0,0.7,0.6,1.3,1.3,1.3h61.2c0.7,0,1.3-0.6,1.3-1.3V26.7
		C63.7,26,63.1,25.4,62.4,25.4z"/>
	<g>
		<path d="M62.4,5.7h-6.5v3.1c0,3.2-1.8,6.7-7,6.7s-7-3.5-7-6.7V5.7H21.9v3.1c0,3.2-1.8,6.7-7,6.7c-5.2,0-7-3.5-7-6.7V5.7H1.3
			C0.6,5.7,0,6.2,0,6.9v12.9C0,20.5,0.6,21,1.3,21h61.2c0.7,0,1.3-0.6,1.3-1.3V6.9C63.7,6.2,63.1,5.7,62.4,5.7z"/>
		<path d="M14.9,11.3c2.1,0,2.9-0.8,2.9-2.6V5.7v-3C17.8,0.8,17,0,14.9,0c-2.1,0-3,0.8-3,2.6v3v3.1C11.9,10.6,12.8,11.3,14.9,11.3z"
			/>
		<path d="M48.9,11.3c2.1,0,2.9-0.8,2.9-2.6V5.7v-3C51.8,0.8,51,0,48.9,0c-2.1,0-2.9,0.8-2.9,2.6v3v3.1
			C45.9,10.6,46.8,11.3,48.9,11.3z"/>
	</g>
</g>
</svg>
