<?xml version="1.0" encoding="utf-8"?>
<!-- Generator: Adobe Illustrator 21.0.2, SVG Export Plug-In . SVG Version: 6.00 Build 0)  -->
<svg version="1.0"   xmlns="http://www.w3.org/2000/svg" xmlns:xlink="http://www.w3.org/1999/xlink" x="0px" y="0px"
	 viewBox="0 0 77.5 66.6" style="enable-background:new 0 0 77.5 66.6;" xml:space="preserve">
<path d="M76.8,13.6L63.9,0.7C63.4,0.3,62.8,0,62.2,0c-0.6,0-1.3,0.3-1.7,0.7L26.1,35L17,25.9c-0.9-0.9-2.5-0.9-3.4,0L0.7,38.8
	C0.3,39.3,0,39.9,0,40.6s0.3,1.3,0.7,1.7l23.6,23.6c0.5,0.5,1.1,0.7,1.7,0.7c0,0,0.1,0,0.1,0c0,0,0,0,0.1,0c0.6,0,1.2-0.2,1.7-0.7
	L76.8,17C77.7,16.1,77.7,14.6,76.8,13.6z"/>
</svg>
