<?xml version="1.0" encoding="utf-8"?>
<svg version="1.0" xmlns="http://www.w3.org/2000/svg" xmlns:xlink="http://www.w3.org/1999/xlink" x="0px" y="0px"
	 viewBox="0 0 75 75" style="enable-background:new 0 0 75 75;" xml:space="preserve">

		<path d="M37.5,9.9c15.2,0,27.6,12.4,27.6,27.6c0,15.2-12.4,27.6-27.6,27.6c-15.2,0-27.6-12.4-27.6-27.6
			C9.9,22.3,22.3,9.9,37.5,9.9 M37.5,0C16.8,0,0,16.8,0,37.5S16.8,75,37.5,75S75,58.2,75,37.5S58.2,0,37.5,0L37.5,0z"/>
	
	<path d="M56.7,23.6l-3.9-3.9c-0.7-0.7-2.1-0.7-2.8,0L37.5,32.2l-6.9-6.9c-0.7-0.7-2-0.7-2.8,0L24,29.2
		c-0.4,0.4-0.6,0.9-0.6,1.4c0,0.5,0.2,1,0.6,1.4l12.1,12.1c0.4,0.4,0.9,0.6,1.4,0.6c0,0,0.1,0,0.1,0c0.5,0,1-0.2,1.4-0.6l17.8-17.8
		C57.5,25.6,57.5,24.3,56.7,23.6z"/>

</svg>