<?xml version="1.0" encoding="utf-8"?>
<!-- Generator: Adobe Illustrator 21.0.2, SVG Export Plug-In . SVG Version: 6.00 Build 0)  -->
<svg version="1.0"   xmlns="http://www.w3.org/2000/svg" xmlns:xlink="http://www.w3.org/1999/xlink" x="0px" y="0px"
	 viewBox="0 0 75 75" style="enable-background:new 0 0 75 75;" xml:space="preserve">
<g>
	<path d="M37.5,0C16.8,0,0,16.8,0,37.5S16.8,75,37.5,75S75,58.2,75,37.5S58.2,0,37.5,0z M37.5,65.1c-15.2,0-27.6-12.4-27.6-27.6
		S22.3,9.9,37.5,9.9s27.6,12.4,27.6,27.6S52.7,65.1,37.5,65.1z"/>
	<path d="M52.2,20.2L32.6,31.8c-0.3,0.2-0.5,0.4-0.6,0.6L20.2,52.2c-0.4,0.7-0.3,1.7,0.3,2.3l0.1,0.1c0.4,0.4,0.8,0.5,1.3,0.5
		c0.3,0,0.7-0.1,1-0.3L42.5,43c0.3-0.2,0.5-0.4,0.6-0.6l11.6-19.5c0.4-0.7,0.2-1.7-0.3-2.3C53.9,19.9,52.9,19.7,52.2,20.2z"/>
</g>
</svg>
