<?xml version="1.0" encoding="utf-8"?>
<!-- Generator: Adobe Illustrator 21.0.2, SVG Export Plug-In . SVG Version: 6.00 Build 0)  -->
<svg version="1.0"   xmlns="http://www.w3.org/2000/svg" xmlns:xlink="http://www.w3.org/1999/xlink" x="0px" y="0px"
	 viewBox="0 0 79.9 73.1" style="enable-background:new 0 0 79.9 73.1;" xml:space="preserve">
<path d="M57.5,0c-7,0-13.4,3.2-17.6,8.7C35.8,3.2,29.3,0,22.3,0C10.1,0,0,10,0,22.3c0,13.2,6.4,21.1,11.5,27.3l1.1,1.3
	c6.1,7.5,25,21,25.8,21.6c0.5,0.3,1,0.5,1.5,0.5c0.5,0,1.1-0.2,1.5-0.5C42.3,72,61.2,58.5,67.3,51l1.1-1.3
	c5.1-6.3,11.6-14.1,11.5-27.3C79.8,10,69.8,0,57.5,0z"/>
</svg>
