<svg id="c899d437-85fd-4591-a404-f28598052643" data-name="Layer 1" xmlns="http://www.w3.org/2000/svg" width="0.222in" height="0.222in" viewBox="0 0 16 16"><title>help</title><path d="M8,0a8,8,0,1,0,8,8A8,8,0,0,0,8,0Zm2,1.3A7,7,0,0,1,14.7,6H11.464A4.017,4.017,0,0,0,10,4.536ZM11,8A3,3,0,1,1,8,5,3,3,0,0,1,11,8ZM7,1H9V4H7ZM6,1.3V4.536A4.017,4.017,0,0,0,4.536,6H1.3A7,7,0,0,1,6,1.3ZM1,7H4V9H1Zm5,7.7A7,7,0,0,1,1.3,10H4.536A4.019,4.019,0,0,0,6,11.465ZM9,15H7V12H9Zm1-.3V11.465A4.019,4.019,0,0,0,11.464,10H14.7A7,7,0,0,1,10,14.7ZM12,9V7h3V9Z"/></svg>