<svg id="960f60be-ef45-4d47-a9e8-f8d0392148d1" data-name="Layer 1" xmlns="http://www.w3.org/2000/svg" width="0.222in" height="0.222in" viewBox="0 0 16 16"><title>map</title><path d="M6.085,5.292,8,8,9.816,5.373,10.8,4A2.907,2.907,0,0,0,11,3,3,3,0,0,0,5,3a5.382,5.382,0,0,0,.172,1ZM8,1a2,2,0,0,1,2,2,1.978,1.978,0,0,1-.277,1h.009L8,6.531,6.269,4h.009A1.979,1.979,0,0,1,6,3,2,2,0,0,1,8,1ZM8,4A1,1,0,1,0,7,3,1,1,0,0,0,8,4Zm7,1-3.158-.789-.631.842L15,6v9l-4-1h0V5.334L10,6.666V14h0L6,15V6.666L4.692,4.924,1,4A1,1,0,0,0,0,5v9c0,.553.449.834,1,1l4,1H6l4-1h1l4,1a1,1,0,0,0,1-1V6.166A1.2,1.2,0,0,0,15,5ZM5,15,1,14V5L5,6Z"/></svg>