<?xml version="1.0" encoding="utf-8"?>
<!-- Generator: Adobe Illustrator 21.0.2, SVG Export Plug-In . SVG Version: 6.00 Build 0)  -->
<svg version="1.0"   xmlns="http://www.w3.org/2000/svg" xmlns:xlink="http://www.w3.org/1999/xlink" x="0px" y="0px"
	 viewBox="0 0 56.4 79.2" style="enable-background:new 0 0 56.4 79.2;" xml:space="preserve">
<g>
	<path d="M28.2,0C12.6,0,0,12.6,0,28.2c0,6.3,2.1,12.2,5.6,16.9l18.1,31.3c0.1,0.2,0.2,0.4,0.3,0.6l0,0.1l0,0
		c0.9,1.3,2.4,2.1,4.1,2.1c1.6,0,2.9-0.7,3.8-1.8l0,0l0.2-0.3c0.3-0.4,0.5-0.7,0.7-1.2l17.7-30.7c3.6-4.7,5.7-10.6,5.7-17
		C56.4,12.6,43.8,0,28.2,0z M27.9,42.5c-7.7,0-13.9-6.2-13.9-13.9c0-7.7,6.2-13.9,13.9-13.9s13.9,6.2,13.9,13.9S35.6,42.5,27.9,42.5
		z"/>
</g>
</svg>
