<?xml version="1.0" encoding="utf-8"?>
<!-- Generator: Adobe Illustrator 21.0.2, SVG Export Plug-In . SVG Version: 6.00 Build 0)  -->
<svg version="1.1"   xmlns="http://www.w3.org/2000/svg" xmlns:xlink="http://www.w3.org/1999/xlink" x="0px" y="0px"
	 viewBox="0 0 44.5 60.1" style="enable-background:new 0 0 44.5 60.1;" xml:space="preserve">
<g>
	<path d="M12.8,0c-0.1,0-0.2,0-0.3,0v0H2.2h0C1,0,0,1,0,2.2c0,0,0,0,0,0h0v55.7h0c0,0,0,0,0,0c0,1.2,1,2.2,2.2,2.2l0,0l0,0h10.6l0,0
		c1.2,0,2.2-1,2.2-2.2c0,0,0,0,0,0h0V2.2l0,0c0,0,0,0,0,0C14.9,1,14,0,12.8,0z"/>
	<path d="M44.5,57.9V2.2l0,0c0,0,0,0,0,0c0-1.2-1-2.2-2.2-2.2c-0.1,0-0.2,0-0.3,0v0H31.7l0,0c-1.2,0-2.2,1-2.2,2.2c0,0,0,0,0,0h0
		v55.7h0c0,0,0,0,0,0c0,1.2,1,2.2,2.2,2.2l0,0l0,0h10.6l0,0C43.5,60.1,44.5,59.1,44.5,57.9C44.5,57.9,44.5,57.9,44.5,57.9L44.5,57.9
		z"/>
</g>
</svg>
