<?xml version="1.0" encoding="utf-8"?>
<!-- Generator: Adobe Illustrator 21.0.2, SVG Export Plug-In . SVG Version: 6.00 Build 0)  -->
<svg version="1.0"   xmlns="http://www.w3.org/2000/svg" xmlns:xlink="http://www.w3.org/1999/xlink" x="0px" y="0px"
	 viewBox="0 0 86.4 73" style="enable-background:new 0 0 86.4 73;" xml:space="preserve">
<style type="text/css">
	.st0{fill:#231F20;}
</style>
<g>
	<path class="st0" d="M86.4,4.5c0-2.5-2-4.5-4.5-4.5c-0.2,0-0.4,0-0.7,0.1V0H4.5v0C2,0,0,2,0,4.5v0v64v0v0V69h0.1
		c0.3,2.2,2.1,4,4.4,4v0h76.8v-0.1c0.2,0,0.4,0.1,0.7,0.1c2.3,0,4.2-1.7,4.4-4h0.1L86.4,4.5L86.4,4.5z M76.5,63H65.6
		c0-0.2-0.1-0.3-0.2-0.4l0,0L42.8,23.2l0,0c-0.5-1-1.5-1.7-2.8-1.7c-1.3,0-2.3,0.7-2.8,1.8L22.1,49.5l-3.7-6.4l0,0
		c-0.3-0.5-0.8-0.9-1.5-0.9c-0.7,0-1.2,0.4-1.5,1L10,52.6V10h66.5V63z"/>
	<circle class="st0" cx="61.3" cy="25.1" r="10.1"/>
</g>
</svg>
