<?xml version="1.0" encoding="utf-8"?>
<!-- Generator: Adobe Illustrator 21.0.2, SVG Export Plug-In . SVG Version: 6.00 Build 0)  -->
<svg version="1.0"   xmlns="http://www.w3.org/2000/svg" xmlns:xlink="http://www.w3.org/1999/xlink" x="0px" y="0px"
	 viewBox="0 0 75 75" style="enable-background:new 0 0 75 75;" xml:space="preserve">
<g>
	<path d="M37.5,0C16.8,0,0,16.8,0,37.5C0,58.2,16.8,75,37.5,75S75,58.2,75,37.5C75,16.8,58.2,0,37.5,0z M37.5,65.1
		c-15.2,0-27.6-12.4-27.6-27.6c0-15.2,12.4-27.6,27.6-27.6s27.6,12.4,27.6,27.6C65.1,52.7,52.7,65.1,37.5,65.1z"/>
	<path d="M53.9,36.6L53.9,36.6L30.5,23.1l0,0c-0.2-0.1-0.3-0.2-0.5-0.2c-0.6,0-1.1,0.5-1.1,1.1c0,0,0,0.1,0,0.1h0v27h0
		c0.1,0.5,0.5,0.9,1,0.9c0.2,0,0.4-0.1,0.5-0.2l0,0l23.4-13.5l0,0c0.3-0.2,0.5-0.5,0.5-0.9S54.2,36.8,53.9,36.6z"/>
</g>
</svg>
