<svg id="6450aa68-6cf4-4502-8b58-14098b088462" data-name="Layer 1" xmlns="http://www.w3.org/2000/svg" width="1.313in" height="1.511in" viewBox="0 0 94.528 108.757"><title>podcast</title><circle cx="47.264" cy="39.305" r="11.436" /><path d="M55.668,108.757H38.86L31.677,64.886a12,12,0,0,1,12-12h7.174a12,12,0,0,1,12,12Z" /><path d="M47.264,82.326A35.062,35.062,0,1,1,82.327,47.264,35.1,35.1,0,0,1,47.264,82.326Zm0-64.625A29.562,29.562,0,1,0,76.827,47.264,29.6,29.6,0,0,0,47.264,17.7Z" /><path d="M47.264,94.528A47.264,47.264,0,1,1,94.528,47.264,47.317,47.317,0,0,1,47.264,94.528Zm0-89.028A41.764,41.764,0,1,0,89.028,47.264,41.811,41.811,0,0,0,47.264,5.5Z" /></svg>