<?xml version="1.0" encoding="utf-8"?>
<!-- Generator: Adobe Illustrator 21.0.2, SVG Export Plug-In . SVG Version: 6.00 Build 0)  -->
<svg version="1.0"   xmlns="http://www.w3.org/2000/svg" xmlns:xlink="http://www.w3.org/1999/xlink" x="0px" y="0px"
	 viewBox="0 0 66.2 65.9" style="enable-background:new 0 0 66.2 65.9;" xml:space="preserve">
<g>
	<path d="M9.4,47.9c-4.8,0-8.8,3.9-8.8,8.8c0,4.8,3.9,8.8,8.8,8.8c4.9,0,8.8-3.9,8.8-8.8C18.2,51.8,14.2,47.9,9.4,47.9z"/>
	<path d="M6.7,23.7c0,0-0.1,0-0.1,0v0H3.1v0C1.4,24,0,25.4,0,27.1h0v6.2h0c0.2,1.6,1.4,2.8,3,3v0h3.5v0c0,0,0.1,0,0.1,0
		c12.8,0,23.2,10.3,23.3,23.1h0v3.5h0c0.2,1.7,1.6,3,3.3,3.1v0h6.2v0c1.6-0.2,2.8-1.4,3-3h0v-3.5h0C42.4,39.7,26.3,23.7,6.7,23.7z"
		/>
	<path d="M66.2,59.3C66.1,26.6,39.4,0,6.7,0c0,0-0.1,0-0.1,0v0H3.1v0C1.4,0.2,0,1.6,0,3.4h0v6.2h0c0.2,1.6,1.4,2.8,3,3v0h3.5v0
		c0,0,0.1,0,0.1,0c25.9,0,46.9,21,47,46.8h0v3.5h0c0.2,1.7,1.6,3,3.3,3.1v0h6.2v0c1.6-0.2,2.8-1.4,3-3h0L66.2,59.3L66.2,59.3
		L66.2,59.3z"/>
</g>
</svg>
