<?xml version="1.0" encoding="utf-8"?>
<!-- Generator: Adobe Illustrator 20.1.0, SVG Export Plug-In . SVG Version: 6.00 Build 0)  -->
<svg version="1.1"   xmlns="http://www.w3.org/2000/svg" xmlns:xlink="http://www.w3.org/1999/xlink" x="0px" y="0px"
	 viewBox="0 0 72 72" style="enable-background:new 0 0 72 72;" xml:space="preserve">
<g>
	<path d="M65,0H7C3.1,0,0,3.1,0,7v58c0,3.8,3.1,7,7,7h58c3.8,0,7-3.2,7-7V7C72,3.1,68.8,0,65,0z M21.4,47.5
		c-6.5,0-11.7-5.2-11.7-11.7S15,24.1,21.4,24.1s11.7,5.2,11.7,11.7C33.1,42.3,27.9,47.5,21.4,47.5z M51.1,47.5
		c-6.5,0-11.7-5.2-11.7-11.7s5.2-11.7,11.7-11.7c6.5,0,11.7,5.2,11.7,11.7C62.8,42.3,57.5,47.5,51.1,47.5z"/>
</g>
</svg>
