<?xml version="1.0" encoding="utf-8"?>
<!-- Generator: Adobe Illustrator 20.1.0, SVG Export Plug-In . SVG Version: 6.00 Build 0)  -->
<svg version="1.1"   xmlns="http://www.w3.org/2000/svg" xmlns:xlink="http://www.w3.org/1999/xlink" x="0px" y="0px"
	 viewBox="0 0 72 72" style="enable-background:new 0 0 72 72;" xml:space="preserve">
<g id="White_1_">
	<path d="M68,0H4C1.8,0,0,1.8,0,4V68c0,2.2,1.8,4,4,4h34.5V44.1h-9.4V33.3h9.4v-8c0-9.3,5.7-14.4,14-14.4c4,0,7.4,0.3,8.4,0.4V21
		l-5.8,0c-4.5,0-5.4,2.1-5.4,5.3v6.9h10.8L59,44.1h-9.4V72H68c2.2,0,4-1.8,4-4V4C72,1.8,70.2,0,68,0z"/>
</g>
</svg>
