<?xml version="1.0" encoding="utf-8"?>
<!-- Generator: Adobe Illustrator 20.1.0, SVG Export Plug-In . SVG Version: 6.00 Build 0)  -->
<svg version="1.1"   xmlns="http://www.w3.org/2000/svg" xmlns:xlink="http://www.w3.org/1999/xlink" x="0px" y="0px"
	 viewBox="0 0 78 78" style="enable-background:new 0 0 78 78;" xml:space="preserve">
<g>
	<path d="M39,0C17.5,0,0,17.5,0,39c0,16,9.6,29.7,23.3,35.7c-0.1-2.7,0-6,0.7-9c0.8-3.2,5-21.3,5-21.3s-1.2-2.5-1.2-6.2
		c0-5.8,3.3-10.1,7.5-10.1c3.5,0,5.3,2.7,5.3,5.9c0,3.6-2.3,8.9-3.4,13.8c-1,4.1,2.1,7.5,6.2,7.5c7.4,0,12.4-9.5,12.4-20.7
		c0-8.5-5.8-14.9-16.2-14.9c-11.8,0-19.2,8.8-19.2,18.7c0,3.4,1,5.8,2.6,7.6c0.7,0.9,0.8,1.2,0.6,2.2c-0.2,0.7-0.6,2.4-0.8,3.1
		c-0.3,1-1.1,1.3-2,1c-5.4-2.2-8-8.2-8-14.9c0-11.1,9.3-24.4,27.9-24.4c14.9,0,24.7,10.8,24.7,22.3c0,15.3-8.5,26.7-21,26.7
		c-4.2,0-8.2-2.3-9.5-4.9c0,0-2.3,9-2.7,10.7c-0.8,3-2.4,6-3.9,8.4c3.5,1,7.2,1.6,11.1,1.6c21.5,0,39-17.5,39-39
		C78,17.5,60.5,0,39,0z"/>
</g>
</svg>
