<?xml version="1.0" encoding="utf-8"?>
<!-- Generator: Adobe Illustrator 20.1.0, SVG Export Plug-In . SVG Version: 6.00 Build 0)  -->
<svg version="1.1"   xmlns="http://www.w3.org/2000/svg" xmlns:xlink="http://www.w3.org/1999/xlink" x="0px" y="0px"
	 viewBox="0 0 72 72" style="enable-background:new 0 0 72 72;" xml:space="preserve">
<g>
	<g>
		<g>
			<path class="st0" d="M31.2,56.4c-0.7,1-1.4,1.5-2,1.5c-0.4,0-0.7-0.2-0.7-0.7c0-0.1,0-0.5,0-1.2V43.1h-3.1v13.7
				c0,1.2,0.1,2.1,0.3,2.6c0.3,0.9,1,1.3,2,1.3c1.2,0,2.3-0.7,3.6-2.1v1.9h3.1V43.1h-3.1V56.4z"/>
			<polygon class="st0" points="13.9,40.5 17.6,40.5 17.6,60.5 21.1,60.5 21.1,40.5 24.8,40.5 24.8,37.2 13.9,37.2 			"/>
			<path class="st0" d="M35.3,25.3c1,0,1.5-0.8,1.5-2.4v-7.4c0-1.6-0.5-2.4-1.5-2.4c-1,0-1.5,0.8-1.5,2.4v7.4
				C33.8,24.5,34.3,25.3,35.3,25.3z"/>
			<path class="st0" d="M43.4,42.9c-1.2,0-2.2,0.6-3.2,1.9v-7.6H37v23.3h3.1v-1.7c1,1.3,2.1,1.9,3.2,1.9c1.3,0,2.1-0.7,2.5-1.9
				c0.2-0.7,0.3-1.9,0.3-3.5v-6.9c0-1.6-0.1-2.8-0.3-3.5C45.5,43.6,44.7,42.9,43.4,42.9z M43.1,55.5c0,1.6-0.5,2.3-1.4,2.3
				c-0.5,0-1-0.2-1.6-0.8V46.5c0.5-0.5,1-0.8,1.6-0.8c0.9,0,1.4,0.8,1.4,2.4V55.5z"/>
			<path class="st0" d="M53.4,42.9c-1.6,0-2.9,0.6-3.8,1.8c-0.7,0.9-1,2.2-1,4.1v6.1c0,1.8,0.3,3.2,1,4.1c0.9,1.2,2.2,1.8,3.8,1.8
				c1.6,0,2.9-0.6,3.8-1.9c0.4-0.6,0.6-1.2,0.7-1.9c0-0.3,0.1-1,0.1-2v-0.5h-3.2c0,1.3,0,2-0.1,2.1c-0.2,0.8-0.6,1.3-1.4,1.3
				c-1.1,0-1.6-0.8-1.6-2.4v-3.1h6.3v-3.6c0-1.9-0.3-3.2-1-4.1C56.3,43.5,55,42.9,53.4,42.9z M55,49.8h-3.1v-1.6
				c0-1.6,0.5-2.4,1.6-2.4c1,0,1.6,0.8,1.6,2.4V49.8z"/>
			<path class="st0" d="M65,0H7C3.1,0,0,3.1,0,7v58c0,3.8,3.1,7,7,7h58c3.8,0,7-3.2,7-7V7C72,3.1,68.8,0,65,0z M42.6,10.5h3.2v12.9
				c0,0.7,0,1.1,0,1.2c0.1,0.5,0.3,0.7,0.7,0.7c0.6,0,1.3-0.5,2-1.5V10.5h3.2V28h-3.2v-1.9c-1.3,1.4-2.5,2.2-3.6,2.2
				c-1,0-1.7-0.4-2-1.3c-0.2-0.5-0.3-1.4-0.3-2.6V10.5z M30.6,16.2c0-1.9,0.3-3.2,1-4.1c0.9-1.2,2.1-1.8,3.7-1.8
				c1.6,0,2.8,0.6,3.7,1.8c0.7,0.9,1,2.3,1,4.1v6.1c0,1.9-0.3,3.2-1,4.1c-0.9,1.2-2.1,1.8-3.7,1.8c-1.6,0-2.8-0.6-3.7-1.8
				c-0.7-0.9-1-2.3-1-4.1V16.2z M22.1,4.5l2.5,9.2L27,4.5h3.6l-4.2,14V28h-3.5v-9.5c-0.3-1.7-1-4.2-2.2-7.4
				c-0.7-2.2-1.5-4.4-2.3-6.5C18.4,4.5,22.1,4.5,22.1,4.5z M61.1,61.5c-0.6,2.8-2.9,4.8-5.6,5.1c-6.4,0.7-13,0.7-19.5,0.7
				c-6.5,0-13,0-19.5-0.7c-2.7-0.3-5-2.3-5.6-5.1C10,57.6,10,53.3,10,49.2c0-4.1,0-8.3,0.9-12.3c0.6-2.8,2.9-4.8,5.6-5.1
				c6.4-0.7,13-0.7,19.5-0.7c6.5,0,13,0,19.5,0.7c2.7,0.3,5,2.3,5.6,5.1C62,40.9,62,45.2,62,49.2C62,53.3,62,57.6,61.1,61.5z"/>
		</g>
	</g>
</g>
</svg>
