<?xml version="1.0" encoding="utf-8"?>
<!-- Generator: Adobe Illustrator 20.1.0, SVG Export Plug-In . SVG Version: 6.00 Build 0)  -->
<svg version="1.1"   xmlns="http://www.w3.org/2000/svg" xmlns:xlink="http://www.w3.org/1999/xlink" x="0px" y="0px"
	 viewBox="0 0 72 72" style="enable-background:new 0 0 72 72;" xml:space="preserve">
<g>
	<g>
		<path class="st0" d="M65,0H7C3.1,0,0,3.1,0,7V65c0,3.8,3.1,7,7,7H65c3.8,0,7-3.1,7-7V7C72,3.1,68.9,0,65,0z M60.4,22.9
			c-0.6,2.9-4.3,13.2-11.1,22.3c-3,3.8-6.4,7.6-10.9,10.2c-1.6,1-4.9,2.2-7.1,1.3c-1.5-0.6-2.7-2-3.6-3.6c-1.7-3-2.6-7.1-3.4-10.2
			c-0.7-2.9-1.4-5.6-2.3-8c-0.5-1.5-0.8-2.9-1.4-4.3c0,0,0,0,0,0c0,0,0,0,0,0c0,0,0-0.1-0.1-0.1c0,0,0,0.1,0.1,0.1
			c-0.2-0.4-0.4-0.8-0.6-1.1c-1.7-2.8-4.1-0.1-6.7-0.5c-0.7-0.1-1.2-0.6-1.5-1.1c-0.2-0.3,0.2-0.6-0.8-0.9v-0.3
			c4-2.9,7.2-6.5,11.5-8.9c1.3-0.8,3.7-1.7,5.6-1.1c1.5,0.4,2.8,1.8,3.5,3.8c0,0,0,0,0,0c0.1,0,0.2,0.7,0.3,0.9
			c0.7,2.2,1.1,5,1.5,7.2c0.6,3.4,0.5,8.6,2.4,11.6h0c0.3,0,0.5,0.7,0.9,1c3.2,3.3,5.6-1.4,6.9-3.7c1.1-2.1,2.1-4.2,2.3-6.2
			c0.1-1.1,0-2-0.2-2.7c-0.6-2-2.3-2.4-4.9-2.4c-0.3,0-0.7,0-1.1,0.1c2.4-7.4,9.6-10.5,11.7-10.8c2.6-0.4,6.4-0.3,8.1,1.9
			c0.4,0.4,0.6,0.9,0.8,1.4C60.7,19.9,60.7,21.4,60.4,22.9z"/>
	</g>
</g>
</svg>
