<?xml version="1.0" encoding="utf-8"?>
<!-- Generator: Adobe Illustrator 20.1.0, SVG Export Plug-In . SVG Version: 6.00 Build 0)  -->
<svg version="1.1"   xmlns="http://www.w3.org/2000/svg" xmlns:xlink="http://www.w3.org/1999/xlink" x="0px" y="0px"
	 viewBox="0 0 72 71.3" style="enable-background:new 0 0 72 71.3;" xml:space="preserve">
<g>
	<path d="M11.2,37.2c1.8,1.4,3.8,2.1,6,2.1c2.9-0.1,5.2-1.1,7.1-3.1c0.9-1.4,1.5-2.8,1.8-4.2c0.2-1.4,0.2-2.7,0.2-3.7
		c0-4.3-1.1-8.6-3.3-12.9c-1-2.1-2.4-3.8-4.1-5.1c-1.7-1.2-3.7-1.9-5.9-2c-2.9,0.1-5.4,1.3-7.3,3.6C4.2,14.3,3.4,17,3.4,20
		c0,3.9,1.1,8,3.4,12.2C8,34.2,9.4,35.9,11.2,37.2z"/>
	<path d="M17.8,53.7c-0.8-1-1.5-2.1-2.1-3.3c-0.7-1.1-1.1-2.5-1.1-4.1c0-1,0.1-1.8,0.4-2.4c0.2-0.7,0.5-1.3,0.7-1.9
		c-1.2,0.1-2.4,0.2-3.5,0.2C7,42.2,3,40.7,0,37.9v19.3c2.7-1.2,5.4-2.1,8.2-2.6C12.1,54.1,15.2,53.8,17.8,53.7z"/>
	<path d="M20.7,56.8c-0.7-0.1-1.5-0.1-2.4-0.1c-0.6-0.1-2,0-4.2,0.2c-2.2,0.3-4.5,0.8-6.9,1.5c-0.6,0.2-1.3,0.5-2.3,1
		c-1,0.5-2,1.1-3.1,2c-0.7,0.6-1.3,1.3-1.8,2v2.9c0,2.8,2.2,5,5,5h27.3c0-0.1,0-0.1,0-0.2c0-2.8-0.9-5.2-2.7-7.2
		C27.8,62,24.8,59.6,20.7,56.8z"/>
	<path d="M67,0H54H36H17.7H5C2.2,0,0,2.2,0,5v5.4v1.3c0.3-0.3,0.6-0.7,1-1c3.1-2.5,6.3-4.2,9.6-5c3.3-0.7,6.4-1,9.3-1h21.7l-6.7,3.9
		h-6.7c0.7,0.4,1.4,1,2.3,1.9c0.8,0.8,1.6,1.9,2.4,3.1c0.7,1.2,1.4,2.5,2,4.1c0.5,1.6,0.7,3.4,0.7,5.6c-0.1,3.9-0.9,7-2.6,9.3
		c-0.8,1.1-1.7,2.2-2.6,3.1c-1,1-2.1,1.9-3.2,2.9c-0.6,0.7-1.2,1.4-1.8,2.3c-0.6,0.9-1,1.9-1,3.1c0,1.1,0.3,2.1,1,2.8
		c0.6,0.7,1.1,1.3,1.6,1.9l3.7,3c2.3,1.9,4.3,3.9,6,6.2c1.6,2.3,2.5,5.3,2.5,9c0,1.5-0.2,3-0.6,4.4H67c2.8,0,5-2.2,5-5V10.4V5
		C72,2.2,69.8,0,67,0z M70.9,22.1H59.5v11.4H54V22.1H42.7v-5.5H54V5.2h5.5v11.4h11.4V22.1z"/>
</g>
</svg>
