<?xml version="1.0" encoding="utf-8"?>
<!-- Generator: Adobe Illustrator 21.0.2, SVG Export Plug-In . SVG Version: 6.00 Build 0)  -->
<svg version="1.0"   xmlns="http://www.w3.org/2000/svg" xmlns:xlink="http://www.w3.org/1999/xlink" x="0px" y="0px"
	 viewBox="0 0 70 70" style="enable-background:new 0 0 70 70;" xml:space="preserve">
<style type="text/css">
	.st0{fill:#231F20;}
</style>
<g>
	<path class="st0" d="M70,55.2c-0.2-1-0.8-1.9-1.8-2.4l-14.3-8.4l-0.1-0.1c-0.6-0.3-1.2-0.4-1.9-0.4c-1.2,0-2.3,0.5-3.1,1.3
		l-4.2,4.2c-0.2,0.2-0.8,0.4-1,0.4c0,0-4.9-0.4-13.9-9.3c-9-9-9.3-13.8-9.3-13.8c0-0.2,0.3-0.8,0.4-1l3.6-3.6c1.3-1.3,1.7-3.4,0.9-5
		l-8-15c-0.6-1.2-1.7-1.9-3-1.9c-0.9,0-1.7,0.4-2.4,1L2,10.8c-0.9,0.9-1.8,2.6-1.9,3.9C0,15.4-1.8,30.4,18.9,51.1
		C36.4,68.6,50.1,70,53.9,70l0,0c0.8,0,1.3-0.1,1.4-0.1c1.3-0.2,3-1,3.9-1.9l9.8-9.8C69.8,57.4,70.1,56.3,70,55.2z"/>
</g>
</svg>
