<svg id="4cf4122e-277b-413f-a694-6f643aeb3f50" data-name="Layer 1" xmlns="http://www.w3.org/2000/svg" width="1.327in" height="0.912in" viewBox="0 0 95.571 65.661"><title>torsos</title><path d="M93.9,40.414,77.718,32.695a14.494,14.494,0,0,0,6.338-12.354c0-7.754-5.4-14.034-12.058-14.034a10.737,10.737,0,0,0-6.223,2.066,24.516,24.516,0,0,1,1.7,9,24.181,24.181,0,0,1-3.825,13.066A12.3,12.3,0,0,0,66.46,32.8l-.01,0,10.426,4.971a8.9,8.9,0,0,1,4.853,8.045v13.54H92.877a2.936,2.936,0,0,0,2.694-3.13v-12.9A3.186,3.186,0,0,0,93.9,40.414Z"/><path d="M29.353,32.656a12.32,12.32,0,0,0,2.368-1.987,24.036,24.036,0,0,1-3.972-13.3A24.452,24.452,0,0,1,29.526,8.2a10.686,10.686,0,0,0-5.948-1.9c-6.666,0-12.062,6.28-12.062,14.034A14.435,14.435,0,0,0,18.04,32.8L1.691,40.408A3.178,3.178,0,0,0,0,43.323v12.9a2.938,2.938,0,0,0,2.694,3.13H13.5V45.816a8.862,8.862,0,0,1,4.943-8.08Z"/><path d="M74.726,42.217,60.649,35.5,54.7,32.662a16.487,16.487,0,0,0,6.093-7.21,19.543,19.543,0,0,0,1.749-8.081,19.947,19.947,0,0,0-.623-4.706C60.145,5.372,54.45,0,47.614,0,40.906,0,35.3,5.181,33.418,12.266a19.651,19.651,0,0,0-.733,5.1A19.371,19.371,0,0,0,34.646,25.9a16.3,16.3,0,0,0,6.116,6.888l-5.7,2.654L20.526,42.21a3.93,3.93,0,0,0-2.092,3.606v15.97a3.635,3.635,0,0,0,3.333,3.875H73.458a3.635,3.635,0,0,0,3.333-3.875V45.816A3.939,3.939,0,0,0,74.726,42.217Z"/></svg>