<svg version="1.0" xmlns="http://www.w3.org/2000/svg" xmlns:xlink="http://www.w3.org/1999/xlink" x="0px" y="0px"
	 viewBox="0 0 64.9 73" style="enable-background:new 0 0 64.9 73;" xml:space="preserve">
<g>
	<path d="M62.6,47L47,39.5l-6.6-3.2c2.9-1.8,5.2-4.6,6.8-8c1.2-2.7,1.9-5.7,1.9-9c0-1.8-0.3-3.6-0.7-5.2C46.4,6,40.1,0,32.5,0
		C25,0,18.8,5.8,16.7,13.6c-0.5,1.8-0.8,3.7-0.8,5.7c0,3.5,0.8,6.7,2.2,9.5c1.6,3.3,3.9,5.9,6.8,7.7l-6.3,3L2.3,47
		C0.9,47.6,0,49.2,0,51V66v2.7C0,71.1,1.7,73,3.7,73h57.5c2,0,3.7-1.9,3.7-4.3V66V51C64.9,49.2,64,47.6,62.6,47z"/>
</g>
</svg>
